# xmcd
#
# Track frame offsets:
# 150
# 18035
# 37157
# 52557
# 68735
# 86452
# 102690
# 123967
# 141462
# 155715
# 176557
# 198440
# 220282
# 234347
# 246115
# 265945
# 285422
# 305017
#
# Disc length: 4358 seconds
#
#
# Revision: 0
# Processed by: cddbd v1.5PL3 Copyright (c) Steve Scherf et al.
# Submitted via: FreeRIP 2.60 
#
DISCID=fe110412
DTITLE=Nino de Angelo - Golden Stars - Nino de Angelo
DYEAR=1900
DGENRE=Folklore
TTITLE0=Samuraj
TTITLE1=Nie wieder lieben
TTITLE2=Ich fahr die Nacht
TTITLE3=Olympic Dreams
TTITLE4=Who's gonna love u tonight
TTITLE5=Will dich nicht lieben
TTITLE6=La Luna
TTITLE7=Flieger
TTITLE8=Bahnsteig 8
TTITLE9=Sterne
TTITLE10=Zimmer mit Aussicht
TTITLE11=Hunger in der Haut
TTITLE12=Have you ever been lonley
TTITLE13=Give me one more try
TTITLE14=Baby Jane
TTITLE15=Unter deinen Fluegel
TTITLE16=Sinja
TTITLE17=Kleiner grosser Mann
EXTD=
EXTT0=
EXTT1=
EXTT2=
EXTT3=
EXTT4=
EXTT5=
EXTT6=
EXTT7=
EXTT8=
EXTT9=
EXTT10=
EXTT11=
EXTT12=
EXTT13=
EXTT14=
EXTT15=
EXTT16=
EXTT17=
PLAYORDER=
